# xmcd
#
# Track frame offsets:
#	150
#	18870
#	27105
#	43157
#	56030
#	71302
#	84825
#	97537
#	112060
#	124435
#	138947
#	152432
#	161372
#	178302
#
# Disc length: 2615
#
# Revision: 4
# Processed by: cddbd v1.5.1PL0 Copyright (c) Steve Scherf et al.
# Submitted via: FreeRIP 1.21
# Normalized: r2:DSETVAR1,TDELIM( - );r3:TSWAP
#
DISCID=a90a350e
DTITLE=Various Artist - Mr Music Country 7-92
DYEAR=1992
DGENRE=Country
TTITLE0=White Canyon with Ottar Johansen - White Canyon
TTITLE1=Art Buchanan - Illinois Boy and The Queen From Bowling Green
TTITLE2=Steve Wariner - The Tips Of My Fingers
TTITLE3=Irene Kelley - A Rock And A Rolling Stone
TTITLE4=Daniel Richard - Ain't No Feeling Like The Feeling
TTITLE5=Aaron Tippin - You Should See Me Missing You
TTITLE6=Brooks and Dunn - Cheating On The Blues
TTITLE7=Melba Montgomery - The Keys In The Mailbox
TTITLE8=Prairie Oyster - Just For Old Times Sake
TTITLE9=Don Williams - That Song About The River
TTITLE10=B.B.Watson - Hank Drank
TTITLE11=Roy Rogers with Clint Black - Hold On Partner
TTITLE12=Karen Donovan - Those Precious Memories
TTITLE13=John Anderson - Siminole Wind
EXTD=www.timmie.dk
EXTT0=
EXTT1=
EXTT2=
EXTT3=
EXTT4=
EXTT5=
EXTT6=
EXTT7=
EXTT8=
EXTT9=
EXTT10=
EXTT11=
EXTT12=
EXTT13=
PLAYORDER=
